<svg height="497pt" viewBox="-5 0 497 497.664" width="497pt" xmlns="http://www.w3.org/2000/svg"><path d="m378.296875 104.996094h-268c-5.519531 0-10 4.480468-10 10v268c0 5.523437 4.480469 10 10 10h268c5.523437 0 10-4.476563 10-10v-268c0-5.519532-4.476563-10-10-10zm0 0" fill="#fff"/><path d="m358.957031 144.339844v209.316406c0 5.523438-4.480469 10-10 10h-209.320312c-5.519531 0-10-4.476562-10-10v-209.316406c0-5.523438 4.480469-10 10-10h209.320312c5.519531 0 10 4.476562 10 10zm0 0" fill="#1c868e"/><g fill="#f85252"><path d="m260.296875 19.996094c0 8.839844-7.164063 16-16 16s-16-7.160156-16-16c0-8.835938 7.164063-16 16-16s16 7.164062 16 16zm0 0"/><path d="m189.632812 477.664062c0 8.839844-7.164062 16-16 16-8.835937 0-16-7.160156-16-16 0-8.835937 7.164063-16 16-16 8.835938 0 16 7.164063 16 16zm0 0"/><path d="m63.296875 319.664062c0 8.839844-7.164063 16-16 16s-16-7.160156-16-16c0-8.835937 7.164063-16 16-16s16 7.164063 16 16zm0 0"/><path d="m456.296875 178.332031c0 8.835938-7.164063 16-16 16s-16-7.164062-16-16c0-8.835937 7.164063-16 16-16s16 7.164063 16 16zm0 0"/></g><path d="m358.957031 144.339844v209.316406c0 5.523438-4.480469 10-10 10h-167.320312c-5.519531 0-10-4.476562-10-10v-209.316406c0-5.523438 4.480469-10 10-10h167.320312c5.519531 0 10 4.476562 10 10zm0 0" fill="#40c4df"/><path d="m484.296875 244.996094h-92v-62.664063h28.40625c1.855469 9.117188 9.9375 16 19.59375 16 11.027344 0 20-8.972656 20-20 0-11.027343-8.972656-20-20-20-9.65625 0-17.738281 6.882813-19.59375 16h-28.40625v-59.335937c0-7.71875-6.277344-14-14-14h-59.332031v-44c0-2.207032-1.792969-4-4-4-2.207032 0-4 1.792968-4 4v44h-62.667969v-61.398438c9.117187-1.859375 16-9.941406 16-19.597656 0-11.027344-8.972656-20-20-20s-20 8.972656-20 20c0 9.65625 6.882813 17.738281 16 19.597656v61.402344h-62.664063v-65c0-5.285156-8-5.292969-8 0v65h-59.335937c-7.71875 0-14 6.28125-14 14v59.332031h-70c-5.28125 0-5.289063 8 0 8h70v62.664063h-92c-5.28125 0-5.289063 8 0 8h92v62.667968h-29.402344c-1.859375-9.117187-9.9375-16-19.597656-16-11.027344 0-20 8.972657-20 20 0 11.027344 8.972656 20 20 20 9.660156 0 17.738281-6.882812 19.597656-16h29.402344v59.332032c0 7.722656 6.28125 14 14 14h59.335937v61.070312c-9.117187 1.859375-16 9.941406-16 19.597656 0 11.027344 8.972657 20 20 20 11.027344 0 20-8.972656 20-20 0-9.65625-6.882812-17.738281-16-19.597656v-61.070312h62.664063v44c0 2.210937 1.792969 4 4 4 2.210937 0 4-1.789063 4-4v-44h62.667969v92c0 5.285156 8 5.292968 8 0v-92h59.332031c7.722656 0 14-6.277344 14-14v-59.332032h56c5.285156 0 5.292969-8 0-8h-56v-62.667968h92c5.285156 0 5.292969-8 0-8zm-44-78.664063c6.617187 0 12 5.382813 12 12 0 6.617188-5.382813 12-12 12s-12-5.382812-12-12c0-6.617187 5.382813-12 12-12zm-393 165.332031c-6.617187 0-12-5.378906-12-12 0-6.617187 5.382813-12 12-12s12 5.382813 12 12c0 6.621094-5.382813 12-12 12zm185-311.667968c0-6.617188 5.382813-12 12-12s12 5.382812 12 12c0 6.621094-5.382813 12-12 12s-12-5.378906-12-12zm-46.664063 457.667968c0 6.621094-5.382812 12-12 12-6.617187 0-12-5.378906-12-12 0-6.617187 5.382813-12 12-12 6.617188 0 12 5.382813 12 12zm198.664063-94.667968c0 3.308594-2.691406 6-6 6h-268c-3.308594 0-6-2.691406-6-6v-268c0-3.304688 2.691406-6 6-6h268c3.308594 0 6 2.695312 6 6zm0 0" fill="#491352"/><path d="m348.964844 130.332031h-209.332032c-7.722656 0-14 6.28125-14 14v209.332031c0 7.722657 6.277344 14 14 14h209.332032c7.722656 0 14-6.277343 14-14v-209.332031c0-7.71875-6.28125-14-14-14zm6 223.332031c0 3.308594-2.691406 6-6 6h-209.332032c-3.308593 0-6-2.691406-6-6v-209.332031c0-3.308593 2.691407-6 6-6h209.332032c3.308594 0 6 2.691407 6 6zm0 0" fill="#491352"/></svg>