<svg id="Layer_1" height="512" viewBox="0 0 128 128" width="512" xmlns="http://www.w3.org/2000/svg" data-name="Layer 1"><g fill="#30ade0"><circle cx="76.5" cy="116.5" r="5"/><circle cx="51.5" cy="116.5" r="5"/><circle cx="109.474" cy="116.5" r="5"/><circle cx="18.526" cy="116.5" r="5"/><path d="m121.5 50.17a25.261 25.261 0 0 1 -25.26 25.26h-68.18a21.561 21.561 0 0 1 -9.49-40.92q-.06-.87-.06-1.77a26.229 26.229 0 0 1 46.17-17.05 20.564 20.564 0 0 1 31.28 9.24 2.62 2.62 0 0 1 .28-.01 25.252 25.252 0 0 1 25.26 25.25z"/></g><path d="m30.268 12.99a24.473 24.473 0 0 1 33.081 3.835 1.749 1.749 0 0 0 2.362.279 18.675 18.675 0 0 1 11.069-3.594 18.9 18.9 0 0 1 17.546 12.048 1.724 1.724 0 0 0 1.81 1.113h.1a23.5 23.5 0 0 1 7.438 1.2 1.75 1.75 0 0 0 1.106-3.321 26.971 26.971 0 0 0 -7.656-1.365 22.432 22.432 0 0 0 -20.344-13.175 22.155 22.155 0 0 0 -11.82 3.379 27.976 27.976 0 0 0 -36.76-3.22 1.75 1.75 0 1 0 2.073 2.821z" fill="#215063"/><path d="m22.133 19.316a1.748 1.748 0 0 0 2.433-.449 24.686 24.686 0 0 1 1.618-2.1 1.75 1.75 0 0 0 -2.653-2.284 28.179 28.179 0 0 0 -1.847 2.4 1.747 1.747 0 0 0 .449 2.433z" fill="#215063"/><path d="m109.474 109.75a6.7 6.7 0 0 0 -3.225.822l-8.5-8.932v-24.5a27.006 27.006 0 0 0 14.471-48.74 1.75 1.75 0 0 0 -2.072 2.821 23.507 23.507 0 0 1 -13.908 42.459h-68.18a19.811 19.811 0 0 1 -8.719-37.6 1.75 1.75 0 0 0 .975-1.69q-.055-.811-.056-1.651a24.388 24.388 0 0 1 1.662-8.888 1.749 1.749 0 1 0 -3.26-1.27 27.831 27.831 0 0 0 -1.9 10.158q0 .37.01.736a23.31 23.31 0 0 0 11.29 43.7h2.19v24.46l-8.5 8.932a6.8 6.8 0 1 0 2.53 2.418l8.987-9.444a1.751 1.751 0 0 0 .482-1.206v-25.155h16v32.808a6.75 6.75 0 1 0 3.5 0v-32.808h21.5v32.808a6.75 6.75 0 1 0 3.5 0v-32.808h16v25.16a1.751 1.751 0 0 0 .482 1.206l8.987 9.444a6.743 6.743 0 1 0 5.755-3.24zm-90.948 10a3.25 3.25 0 1 1 3.25-3.25 3.254 3.254 0 0 1 -3.25 3.25zm36.224-3.25a3.25 3.25 0 1 1 -3.25-3.25 3.254 3.254 0 0 1 3.25 3.25zm25 0a3.25 3.25 0 1 1 -3.25-3.25 3.254 3.254 0 0 1 3.25 3.25zm29.724 3.25a3.25 3.25 0 1 1 3.25-3.25 3.254 3.254 0 0 1 -3.25 3.25z" fill="#215063"/><path d="m112.75 50.17a16.411 16.411 0 0 1 -2.794 9.181 1.75 1.75 0 1 0 2.905 1.951 19.966 19.966 0 0 0 -3.134-25.891 1.75 1.75 0 0 0 -2.359 2.589 16.529 16.529 0 0 1 5.382 12.17z" fill="#215063"/></svg>