<svg id="Layer_1" data-name="Layer 1" xmlns="http://www.w3.org/2000/svg" viewBox="0 0 244.8 280.33">
  <defs>
    <style>
      .cls-1 {
        fill: #273b7a;
      }

      .cls-2 {
        fill: #ffc61b;
      }

      .cls-3 {
        fill: #ff6262;
      }
    </style>
  </defs>
  <title>donate</title>
  <path class="cls-1" d="M159.3,38.47,193.15,4.62H62.85L96.7,38.47C44.27,61.47,5.6,138,5.6,194.8c0,67.6,54.8,90.15,122.4,90.15s122.4-22.56,122.4-90.15C250.4,138,211.73,61.52,159.3,38.47Z" transform="translate(-5.6 -4.62)"/>
  <path class="cls-1" d="M159.3,38.47,193.15,4.62H125v280.3h3c67.6,0,122.4-22.56,122.4-90.15C250.4,138,211.73,61.52,159.3,38.47Z" transform="translate(-5.6 -4.62)"/>
  <path class="cls-2" d="M169.46,42.14H86.54a5.92,5.92,0,0,1,0-11.84h82.92a5.92,5.92,0,0,1,0,11.84Z" transform="translate(-5.6 -4.62)"/>
  <path class="cls-3" d="M122.14,208.63a3.7,3.7,0,0,0,6.12,0c11.7-17.27,53-38.71,53-66.47,0-19.15-12.54-28-28-28a28,28,0,0,0-28,28,28,28,0,0,0-28-28c-15.47,0-28,8.87-28,28C69.17,169.92,110.43,191.36,122.14,208.63Z" transform="translate(-5.6 -4.62)"/>
  <path class="cls-3" d="M153.21,114.14a28,28,0,0,0-28,28v68.1a3.67,3.67,0,0,0,3.07-1.62c11.7-17.27,53-38.71,53-66.47C181.23,123,168.68,114.14,153.21,114.14Z" transform="translate(-5.6 -4.62)"/>
</svg>
