<svg id="Layer_1" data-name="Layer 1" xmlns="http://www.w3.org/2000/svg" xmlns:xlink="http://www.w3.org/1999/xlink" viewBox="0 0 211.5 272"><defs><style>.cls-1{fill:none;}.cls-2{clip-path:url(#clip-path);}.cls-3{fill:#ffc128;}.cls-4{fill:#00c176;}</style><clipPath id="clip-path"><rect class="cls-1" x="-542.39" y="-439.97" width="392.89" height="800.88"/></clipPath></defs><title>01 - Pardakht Baaham (SVG - PNG)</title><g class="cls-2"><path class="cls-3" d="M187.64-248.68L-137.54-436.21a24.07,24.07,0,0,0-24.1,0L-487.17-248.68a24.4,24.4,0,0,0-12.33,21v375a24.43,24.43,0,0,0,12.36,21L-161.7,355.73a24.31,24.31,0,0,0,24.22,0L187.61,168.21a24,24,0,0,0,11.89-21v-375A24,24,0,0,0,187.64-248.68ZM82.5,84.58a15.8,15.8,0,0,1-7.73,13.95L-141.62,223.36a16,16,0,0,1-16,0L-374.31,98.52a16.23,16.23,0,0,1-8.19-13.95V-165A16.26,16.26,0,0,1-374.27-179l216.64-124.83a16.18,16.18,0,0,1,16.13,0L74.75-179A15.82,15.82,0,0,1,82.5-165V84.58Z"/></g><polygon class="cls-4" points="60.23 84.65 44.66 100.23 94.62 150.19 205.75 39.06 190.23 23.55 94.62 119.1 60.23 84.65"/><path class="cls-4" d="M183.57,183.57H28V28H139.13V5.75H28A22.28,22.28,0,0,0,5.75,28V258.25a8,8,0,0,0,8,8h184a8,8,0,0,0,8-8V94.63H183.57v88.94Z"/></svg>