<svg id="Capa_1" data-name="Capa 1" xmlns="http://www.w3.org/2000/svg" viewBox="0 0 512 512">
  <defs>
    <style>
      .cls-1 {
        fill: #fedb41;
      }

      .cls-2 {
        fill: #fea832;
      }

      .cls-3 {
        fill: #fc3;
      }
    </style>
  </defs>
  <title>paybox</title>
  <path class="cls-1" d="M257,0C116.3,0,0,114.3,0,255S116.3,512,257,512,512,395.7,512,255,397.7,0,257,0Z" transform="translate(0 0)"/>
  <path class="cls-2" d="M257,60C149.6,60,60,147.6,60,255s89.6,197,197,197,195-89.6,195-197S364.4,60,257,60Z" transform="translate(0 0)"/>
  <path class="cls-3" d="M387.06,156.81a10.55,10.55,0,0,0-14.83,1.62L231.9,333.08a10.55,10.55,0,0,1-14.93.47l-78.12-74.88a10.55,10.55,0,1,0-14.6,15.23l78.15,74.91a31.37,31.37,0,0,0,21.76,8.71l1.31,0A31.39,31.39,0,0,0,247.77,347l.36-.43L388.67,171.64A10.55,10.55,0,0,0,387.06,156.81Z" transform="translate(0 0)"/>
</svg>
